<svg width="115" height="110" viewBox="0 0 115 110" fill="none" xmlns="http://www.w3.org/2000/svg">
<path d="M52.8234 74.0899C50.5323 75.5641 48.1913 75.8531 45.9202 74.1574C43.6592 72.4713 43.4491 70.1781 44.3195 67.3551C41.3582 67.9717 38.687 67.9525 36.9262 65.4089C35.4255 63.2314 35.7856 61.0924 37.2663 59.0402C37.4464 58.8668 37.6365 58.6933 37.8166 58.5199C38.8771 57.7877 40.1076 57.0747 41.3381 57.3155C43.5892 57.7491 43.179 56.7471 43.2991 55.2151C43.4691 53.1051 43.229 52.238 40.7779 52.5752C39.8875 52.7004 38.8571 51.9296 37.8866 51.5731C37.6265 51.3226 37.3664 51.0721 37.1063 50.8216C35.8057 48.7212 35.4055 46.5726 36.9862 44.4529C38.737 42.0924 41.2181 41.89 44.2595 42.6801C43.4892 39.7896 43.5992 37.2557 46.2404 35.5792C48.4914 34.1436 50.7124 34.5097 52.8333 35.926C53.0134 36.0995 53.1935 36.2825 53.3736 36.456C53.8038 37.4773 54.7442 38.5853 54.5841 39.5199C54.1439 42.0249 55.3845 41.5721 57.1853 41.7166C59.3563 41.89 59.5364 41.3216 59.4764 39.5391C59.4463 38.5275 60.2668 37.4965 60.7069 36.4752C60.897 36.2825 61.0871 36.0995 61.2772 35.9068C63.5482 34.3652 65.8893 34.105 68.1703 35.7815C70.4413 37.4484 70.7115 39.7318 69.8311 42.5356C72.7224 42.0538 75.4236 41.9382 77.1844 44.5011C78.685 46.6786 78.3449 48.8079 76.9142 50.8891C76.6941 51.101 76.4741 51.3033 76.254 51.5153C75.1735 51.92 74.0429 52.7583 73.0325 52.6426C70.8315 52.4018 70.8515 53.1533 70.8815 54.955C70.9115 56.6989 70.8015 57.5371 73.0325 57.2963C74.0529 57.1903 75.1735 58.0285 76.254 58.4332C76.4741 58.6451 76.7041 58.8572 76.9242 59.0788C78.4449 61.2659 78.7451 63.5204 76.9943 65.6979C75.2635 67.8562 72.9224 68.203 69.9911 67.2781C70.5914 70.1878 70.4914 72.847 67.6901 74.5235C65.5491 75.8049 63.4182 75.4581 61.3772 74.1959C61.0971 73.9262 60.827 73.666 60.5468 73.3962C59.4664 71.8546 59.1862 70.1396 59.4864 68.3475C56.415 68.0103 53.8638 68.097 54.174 72.0184C54.214 72.4906 53.6738 73.0012 53.3936 73.4925C53.2236 73.6949 53.0235 73.8972 52.8234 74.0899ZM67.54 65.062C65.7792 64.0311 69.4809 60.7937 65.5491 60.7841C63.5382 60.7745 63.078 61.4393 63.088 63.2218C63.118 66.9697 66.4295 63.4241 67.54 65.062ZM46.6806 65.1102C47.7611 63.6843 51.6929 67.0565 51.0126 62.4413C50.4723 58.7704 48.0412 61.6609 46.7106 60.7167C47.2508 62.239 46.6706 63.5205 46.6806 65.1102ZM67.6701 44.9636C63.018 45.4261 63.128 45.4453 62.998 46.4859C62.5378 50.099 65.3691 48.8657 67.5801 49.4342C66.9198 47.7577 67.43 46.3896 67.6701 44.9636ZM46.6406 44.7709C46.9007 46.3992 47.0608 47.8059 46.8006 49.3764C48.0812 48.2684 50.6524 51.0047 51.0926 47.3627C51.6228 42.8632 47.6811 46.4377 46.6406 44.7709ZM55.2744 54.7045C55.3545 55.668 54.6042 57.0265 56.6351 56.6507C57.6656 56.458 58.9962 57.1614 58.8161 55.0995C58.696 53.7025 58.626 53.1532 56.9553 53.2592C55.7047 53.3267 54.8042 53.2111 55.2744 54.7045Z" fill="#12D930" fill-opacity="0.2"/>
<path d="M53.3852 36.465C53.2051 36.2915 53.025 36.1085 52.8449 35.935C52.8149 35.7134 52.8449 35.4629 52.7549 35.2702C51.5743 32.7555 51.5343 30.3757 53.9554 28.5451C55.9263 27.0517 58.1473 27.042 60.1382 28.5258C62.5793 30.3468 62.5393 32.7266 61.3888 35.2413C61.2987 35.4436 61.3187 35.6845 61.2887 35.9061C61.0986 36.0988 60.9085 36.2819 60.7184 36.4746C58.2673 37.4284 55.8263 37.3995 53.3852 36.465Z" fill="#12D930" fill-opacity="0.2"/>
<path d="M76.9454 59.0787C76.7253 58.8667 76.4952 58.6547 76.2751 58.4331C75.2447 56.1304 75.2647 53.818 76.2751 51.5153C76.4952 51.3033 76.7153 51.101 76.9354 50.889C77.7158 50.6578 78.4761 50.3687 79.2765 50.2146C81.5375 49.8003 83.4883 50.3302 84.7889 52.2668C85.9795 54.0396 85.9795 55.8992 84.7989 57.672C83.5084 59.6182 81.5575 60.1482 79.2965 59.7339C78.4861 59.599 77.7258 59.3099 76.9454 59.0787Z" fill="#12D930" fill-opacity="0.2"/>
<path d="M60.5784 73.3958C60.8585 73.6656 61.1286 73.9354 61.4087 74.1955C61.5588 74.7351 61.7089 75.2746 61.859 75.8238C62.4892 78.1266 62.1091 80.1788 59.9881 81.5951C58.0372 82.8958 55.9463 82.8669 54.0254 81.518C51.9445 80.0535 51.6143 77.9917 52.3047 75.7082C52.4647 75.1686 52.6448 74.629 52.8149 74.0895C53.015 73.8871 53.2151 73.6944 53.4252 73.4921C55.7962 72.5286 58.1773 72.5576 60.5784 73.3958Z" fill="#12D930" fill-opacity="0.2"/>
<path d="M37.8269 58.5286C37.6468 58.702 37.4567 58.8754 37.2766 59.0489C34.4153 59.9257 31.5441 60.7157 29.4131 57.7482C28.1725 56.0235 28.1425 54.1351 29.333 52.3622C31.364 49.3272 34.2453 50.0017 37.1366 50.84C37.3967 51.0905 37.6568 51.341 37.9169 51.5915C38.8474 53.9038 38.7573 56.2162 37.8269 58.5286Z" fill="#12D930" fill-opacity="0.2"/>
<path d="M85.4283 69.966C85.4884 72.5193 83.0973 74.822 80.4461 74.7738C77.935 74.7257 75.6839 72.5675 75.6339 70.1491C75.5739 67.5862 77.955 65.2931 80.6162 65.3509C83.1273 65.3895 85.3683 67.538 85.4283 69.966Z" fill="#12D930" fill-opacity="0.2"/>
<path d="M33.6252 74.7255C31.004 74.7544 28.6429 72.4421 28.733 69.9274C28.813 67.5186 31.044 65.4086 33.5451 65.3797C36.1663 65.3508 38.5174 67.6631 38.4374 70.1778C38.3573 72.5866 36.1263 74.7063 33.6252 74.7255Z" fill="#12D930" fill-opacity="0.2"/>
<path d="M46.2804 77.4233C46.3805 79.9477 44.0494 82.2793 41.4082 82.2793C38.9171 82.2793 36.6461 80.1693 36.5461 77.7606C36.446 75.2362 38.7871 72.9045 41.4183 72.9045C43.9094 72.9045 46.1804 75.005 46.2804 77.4233Z" fill="#12D930" fill-opacity="0.2"/>
<path d="M80.2556 44.6158C77.6044 44.452 75.4034 41.9951 75.6635 39.49C75.9236 37.062 78.3147 35.0676 80.7958 35.2218C83.447 35.3855 85.6581 37.8425 85.3879 40.3475C85.1278 42.7755 82.7367 44.7603 80.2556 44.6158Z" fill="#12D930" fill-opacity="0.2"/>
<path d="M33.4145 35.2413C35.8856 35.145 38.2267 37.1683 38.4268 39.5867C38.6369 42.0821 36.3959 44.4909 33.7547 44.5968C31.1435 44.6932 28.7324 42.4483 28.7324 39.9143C28.7324 37.5152 30.9134 35.3377 33.4145 35.2413Z" fill="#12D930" fill-opacity="0.2"/>
<path d="M77.5848 32.3992C77.5748 34.9525 75.1437 37.1974 72.5025 37.0818C69.9813 36.9662 67.8103 34.7791 67.8203 32.3607C67.8304 29.8074 70.2715 27.5625 72.9027 27.6781C75.4238 27.7937 77.5948 29.9905 77.5848 32.3992Z" fill="#12D930" fill-opacity="0.2"/>
<path d="M41.4294 27.7071C44.0606 27.7167 46.3816 30.058 46.2616 32.5727C46.1415 34.9814 43.8805 37.0722 41.3894 37.0529C38.7582 37.0433 36.4371 34.702 36.5572 32.1873C36.6772 29.7786 38.9483 27.6974 41.4294 27.7071Z" fill="#12D930" fill-opacity="0.2"/>
<path d="M77.5852 77.529C77.6252 80.0727 75.2242 82.3561 72.583 82.2887C70.0718 82.2213 67.8508 80.063 67.8208 77.6447C67.7808 75.0914 70.1719 72.8176 72.8231 72.885C75.3442 72.9525 77.5552 75.1107 77.5852 77.529Z" fill="#12D930" fill-opacity="0.2"/>
<path d="M44.7109 84.8515C45.1011 82.2019 46.6619 80.776 49.4331 80.8049C52.0843 80.8338 54.0252 83.0016 53.685 85.5645C53.3349 88.243 51.5941 89.5919 48.8528 89.3992C46.0516 89.2161 44.791 87.4626 44.7109 84.8515Z" fill="#12D930" fill-opacity="0.2"/>
<path d="M88.3494 66.9019C85.5982 66.6706 83.9874 65.2832 83.8474 62.595C83.7173 60.0321 85.8783 57.9896 88.5395 58.1823C91.3208 58.3846 92.8915 59.9454 92.8415 62.6143C92.7915 65.3025 91.0907 66.6803 88.3494 66.9019Z" fill="#12D930" fill-opacity="0.2"/>
<path d="M30.2543 62.4692C30.0442 65.1284 28.6436 66.7568 25.8123 66.776C23.011 66.7953 21.3703 65.273 21.3403 62.5656C21.3102 59.8678 22.901 58.2973 25.7122 58.2492C28.5335 58.2203 29.9842 59.81 30.2543 62.4692Z" fill="#12D930" fill-opacity="0.2"/>
<path d="M69.431 85.0732C69.2309 87.7036 67.8303 89.3608 65.029 89.4379C62.2578 89.5149 60.607 88.0215 60.3669 85.3526C60.1368 82.7897 62.2278 80.6893 64.899 80.776C67.7003 80.882 69.1509 82.414 69.431 85.0732Z" fill="#12D930" fill-opacity="0.2"/>
<path d="M88.2799 51.8332C85.5186 51.5538 83.9379 50.1375 83.8478 47.4494C83.7678 44.8865 85.9688 42.8824 88.63 43.1136C91.4113 43.3641 92.9419 44.9635 92.8519 47.6228C92.7418 50.3109 91.0011 51.6502 88.2799 51.8332Z" fill="#12D930" fill-opacity="0.2"/>
<path d="M25.9418 43.1228C28.6931 43.4504 30.2938 44.9149 30.1837 47.6127C30.0737 50.3201 28.3729 51.7942 25.5916 51.7075C22.7803 51.6112 21.2497 49.9732 21.3397 47.2851C21.4297 44.5584 23.1806 43.2673 25.9418 43.1228Z" fill="#12D930" fill-opacity="0.2"/>
<path d="M53.7536 24.7393C53.4634 27.572 51.9927 29.1618 49.1715 29.1136C46.3602 29.0654 44.7595 27.4757 44.7895 24.7779C44.8295 22.0705 46.4802 20.5385 49.2915 20.5578C52.1528 20.5771 53.4934 22.2728 53.7536 24.7393Z" fill="#12D930" fill-opacity="0.2"/>
<path d="M69.4116 24.8932C69.1515 27.5428 67.7008 29.0651 64.9095 29.1615C62.2483 29.2482 60.1875 27.1863 60.3976 24.6234C60.6277 21.9546 62.2584 20.4804 65.0196 20.5479C67.8209 20.6153 69.2115 22.2629 69.4116 24.8932Z" fill="#12D930" fill-opacity="0.2"/>
<path d="M33.7057 89.091C31.2446 88.8212 29.6039 87.5783 29.5539 85.2081C29.5039 82.8379 31.0546 81.306 33.4957 81.2482C35.9568 81.1904 37.5475 82.6838 37.6176 85.0444C37.6876 87.4145 36.0768 88.6959 33.7057 89.091Z" fill="#12D930" fill-opacity="0.2"/>
<path d="M57.1269 96.6448C54.7058 96.375 53.0551 95.1225 53.0051 92.7427C52.9551 90.3629 54.5157 88.8116 56.9668 88.7538C59.4379 88.696 61.0387 90.1991 61.1087 92.5693C61.1787 94.9683 59.568 96.2594 57.1269 96.6448Z" fill="#12D930" fill-opacity="0.2"/>
<path d="M96.4644 51.0138C98.6554 51.351 100.146 52.6228 100.276 54.993C100.396 57.132 98.0952 59.2227 95.9142 58.9337C93.5131 58.6157 92.1024 57.1801 92.0724 54.8099C92.0524 52.7866 94.1834 50.956 96.4644 51.0138Z" fill="#12D930" fill-opacity="0.2"/>
<path d="M22.0492 54.9545C21.649 57.3921 20.3084 58.9145 17.8473 58.847C15.4062 58.7796 13.8655 57.2476 13.9255 54.8967C13.9855 52.5457 15.5762 51.0716 18.0274 51.1198C20.4985 51.168 21.729 52.777 22.0492 54.9545Z" fill="#12D930" fill-opacity="0.2"/>
<path d="M56.9949 13.3506C59.406 13.6204 61.0367 14.8633 61.0868 17.2431C61.1268 19.6133 59.5861 21.1452 57.135 21.1934C54.6739 21.2416 53.0831 19.7482 53.0231 17.3876C52.9631 15.0078 54.5638 13.7167 56.9949 13.3506Z" fill="#12D930" fill-opacity="0.2"/>
<path d="M37.6774 24.7878C37.4073 27.0906 36.1267 28.6611 33.6756 28.7092C31.2245 28.7574 29.6337 27.2737 29.5837 24.9324C29.5237 22.5815 31.0644 21.0495 33.5055 20.9821C35.9566 20.9243 37.2972 22.4465 37.6774 24.7878Z" fill="#12D930" fill-opacity="0.2"/>
<path d="M84.668 85.1985C84.2678 87.5494 82.9173 89.1006 80.4361 89.0332C77.985 88.9657 76.4143 87.4242 76.4743 85.0444C76.5343 82.6838 78.1451 81.1807 80.6162 81.2289C83.0973 81.2771 84.3879 82.8668 84.668 85.1985Z" fill="#12D930" fill-opacity="0.2"/>
<path d="M80.4661 20.8562C82.8872 21.1356 84.538 22.3785 84.588 24.7583C84.638 27.1382 83.0773 28.6894 80.6162 28.7376C78.145 28.7954 76.5443 27.2827 76.4743 24.9221C76.4143 22.5327 78.025 21.2416 80.4661 20.8562Z" fill="#12D930" fill-opacity="0.2"/>
<path d="M25.7225 73.6367C28.2537 74.0125 29.8344 75.3036 29.7743 77.6737C29.7143 80.0247 28.1236 81.5084 25.6825 81.4506C23.2514 81.4024 21.7107 79.8705 21.7508 77.51C21.7908 75.1301 23.4615 73.945 25.7225 73.6367Z" fill="#12D930" fill-opacity="0.2"/>
<path d="M88.4095 36.3687C85.9884 36.0893 84.3476 34.8367 84.2976 32.4569C84.2576 30.0771 85.8183 28.5355 88.2695 28.4777C90.7406 28.4295 92.3413 29.9326 92.4013 32.3027C92.4614 34.6922 90.8506 35.9929 88.4095 36.3687Z" fill="#12D930" fill-opacity="0.2"/>
<path d="M29.8632 32.2644C29.5831 34.625 28.3025 36.1955 25.8514 36.2436C23.4003 36.2918 21.8095 34.808 21.7595 32.4667C21.6995 30.1062 23.2502 28.5839 25.6813 28.5261C28.1424 28.4586 29.463 30.0002 29.8632 32.2644Z" fill="#12D930" fill-opacity="0.2"/>
<path d="M92.5123 77.6737C92.1222 79.9861 90.8016 81.4217 88.3405 81.5374C86.1095 81.6433 83.9585 79.4273 84.2586 77.3173C84.5988 75.0049 86.0994 73.5404 88.5505 73.6657C90.9716 73.7813 92.2522 75.3614 92.5123 77.6737Z" fill="#12D930" fill-opacity="0.2"/>
<path d="M96.2934 36.2917C98.6945 36.5326 100.005 37.8044 99.8851 40.1168C99.765 42.4581 98.2443 43.6239 95.8732 43.489C93.6422 43.3638 92.4217 42.0245 92.4517 39.8856C92.4917 37.5347 93.9223 36.4074 96.2934 36.2917Z" fill="#12D930" fill-opacity="0.2"/>
<path d="M96.2837 73.7136C93.7825 73.492 92.4119 72.2972 92.4419 70.0041C92.4819 67.711 93.8625 66.4296 96.2336 66.4585C98.6147 66.4874 99.9253 67.8267 99.9153 70.1102C99.9053 72.4322 98.4346 73.5113 96.2837 73.7136Z" fill="#12D930" fill-opacity="0.2"/>
<path d="M17.7884 73.6365C15.4273 73.3763 14.1367 72.1141 14.2668 69.821C14.4068 67.499 15.9075 66.3621 18.2586 66.5163C20.4696 66.6608 21.6602 67.9808 21.6201 70.1101C21.5701 72.4418 20.1395 73.5305 17.7884 73.6365Z" fill="#12D930" fill-opacity="0.2"/>
<path d="M72.7023 13.707C75.0734 13.8805 76.454 15.0752 76.394 17.3972C76.3439 19.7289 74.9133 20.9429 72.5322 20.8754C70.3112 20.808 69.0406 19.5458 69.0106 17.4069C68.9706 15.0752 70.3312 13.8805 72.7023 13.707Z" fill="#12D930" fill-opacity="0.2"/>
<path d="M18.1777 43.5086C15.6665 43.3641 14.2559 42.2368 14.2559 39.9148C14.2659 37.6024 15.6265 36.3498 18.0176 36.3691C20.2286 36.3884 21.5192 37.6024 21.6092 39.7413C21.7193 42.073 20.3587 43.2388 18.1777 43.5086Z" fill="#12D930" fill-opacity="0.2"/>
<path d="M76.4838 92.6557C76.2037 95.103 74.8631 96.3556 72.472 96.2303C70.0409 96.0954 68.8404 94.6309 69.0005 92.3474C69.1505 90.1988 70.5412 89.0427 72.7622 89.0716C75.2233 89.1101 76.3138 90.5553 76.4838 92.6557Z" fill="#12D930" fill-opacity="0.2"/>
<path d="M41.5397 96.2791C39.0085 96.0671 37.6479 94.8628 37.728 92.5408C37.798 90.2091 39.2487 89.0144 41.6297 89.1011C43.8507 89.1878 45.0913 90.4596 45.1213 92.6082C45.1513 94.9688 43.7107 96.0671 41.5397 96.2791Z" fill="#12D930" fill-opacity="0.2"/>
<path d="M45.1304 17.4555C44.8602 19.7294 43.5496 20.9723 41.1686 20.847C38.7575 20.7121 37.5769 19.2669 37.737 17.0027C37.8871 14.8734 39.2577 13.7268 41.4687 13.7653C43.8898 13.8135 45.0203 15.1913 45.1304 17.4555Z" fill="#12D930" fill-opacity="0.2"/>
<path d="M103.977 65.794C101.836 65.3894 100.516 64.2621 100.706 62.2773C100.886 60.3503 102.266 59.1459 104.347 59.3483C106.208 59.5313 107.389 60.7742 107.329 62.5952C107.249 64.5896 105.838 65.5531 103.977 65.794Z" fill="#12D930" fill-opacity="0.2"/>
<path d="M10.1255 65.6684C8.12459 65.4661 6.84397 64.4062 6.89399 62.4118C6.93401 60.5908 8.15459 59.425 10.0454 59.4153C12.1164 59.4057 13.3769 60.6294 13.3269 62.6238C13.2969 64.4448 12.0664 65.4564 10.1255 65.6684Z" fill="#12D930" fill-opacity="0.2"/>
<path d="M64.7786 6.58716C66.5994 6.70278 67.93 7.60845 68.1101 9.43908C68.3102 11.4528 67.0997 12.7824 65.0487 12.8884C62.9778 12.9944 61.6572 11.7611 61.6272 9.75705C61.6072 7.93605 62.8277 6.88584 64.7786 6.58716Z" fill="#12D930" fill-opacity="0.2"/>
<path d="M107.379 47.3435C107.179 49.2608 106.128 50.6001 104.067 50.6386C102.016 50.6772 100.716 49.4053 100.686 47.4302C100.666 45.6092 101.906 44.3855 103.757 44.2699C105.828 44.1254 106.989 45.3683 107.379 47.3435Z" fill="#12D930" fill-opacity="0.2"/>
<path d="M10.0242 44.2981C11.8251 44.4041 13.1356 45.2905 13.3157 47.1211C13.5058 49.1156 12.3253 50.4356 10.2844 50.5416C8.22344 50.6475 6.92284 49.4335 6.89283 47.4391C6.87282 45.6181 8.06336 44.5775 10.0242 44.2981Z" fill="#12D930" fill-opacity="0.2"/>
<path d="M52.5842 100.123C52.3741 102.031 51.3137 103.341 49.2627 103.351C47.2218 103.36 45.9412 102.108 45.9512 100.133C45.9512 98.3213 47.1817 97.1266 49.0326 97.0303C51.0835 96.9243 52.234 98.1479 52.5842 100.123Z" fill="#12D930" fill-opacity="0.2"/>
<path d="M52.5439 9.71837C52.3939 11.4912 51.4134 12.7534 49.5225 12.8979C47.4416 13.052 46.071 11.8669 45.991 9.88215C45.9209 7.88772 47.2215 6.6352 49.3025 6.64483C51.2033 6.65447 52.2638 7.8492 52.5439 9.71837Z" fill="#12D930" fill-opacity="0.2"/>
<path d="M64.8886 103.418C62.8777 103.167 61.547 102.098 61.5971 100.132C61.6471 98.1763 62.9877 96.9623 65.0286 97.0394C66.8895 97.1068 68.12 98.3015 68.16 100.103C68.2101 102.069 66.9195 103.138 64.8886 103.418Z" fill="#12D930" fill-opacity="0.2"/>
<path d="M96.1433 88.0119C94.2124 87.8578 93.132 86.8558 93.222 84.948C93.302 83.2041 94.3825 82.2503 96.1833 82.2696C98.1742 82.2888 99.2147 83.3968 99.1347 85.2949C99.0646 87.0388 97.9541 87.8963 96.1433 88.0119Z" fill="#12D930" fill-opacity="0.2"/>
<path d="M88.0694 14.4297C90.1703 14.526 91.3108 15.4414 91.2908 17.3587C91.2708 19.0834 90.2604 20.095 88.4696 20.1336C86.5087 20.1817 85.4182 19.1508 85.4082 17.2527C85.4082 15.4992 86.5087 14.6609 88.0694 14.4297Z" fill="#12D930" fill-opacity="0.2"/>
<path d="M88.3911 89.7751C90.2019 89.9293 91.2824 90.8157 91.3124 92.5693C91.3424 94.477 90.2619 95.5368 88.281 95.5176C86.4802 95.4983 85.4297 94.5059 85.3897 92.7619C85.3497 90.835 86.4702 89.8811 88.3911 89.7751Z" fill="#12D930" fill-opacity="0.2"/>
<path d="M95.9141 21.9458C98.0051 22.0421 99.1556 22.9671 99.1356 24.8941C99.1155 26.6284 98.1051 27.6497 96.2942 27.6882C94.3233 27.7364 93.2129 26.6958 93.2129 24.7881C93.2129 23.0249 94.3134 22.1674 95.9141 21.9458Z" fill="#12D930" fill-opacity="0.2"/>
<path d="M28.703 17.3784C28.5229 19.0838 27.6025 20.1147 25.7917 20.1051C23.8008 20.0955 22.7604 18.9682 22.8804 17.0894C22.9905 15.3647 24.131 14.4494 25.9218 14.5265C27.7226 14.5939 28.593 15.6634 28.703 17.3784Z" fill="#12D930" fill-opacity="0.2"/>
<path d="M18.0487 82.2788C19.8295 82.4715 20.88 83.3869 20.85 85.1404C20.81 87.0867 19.6094 88.0598 17.6485 87.9249C15.8377 87.7997 14.9073 86.6723 15.0073 84.9381C15.1274 83.1749 16.2579 82.3559 18.0487 82.2788Z" fill="#12D930" fill-opacity="0.2"/>
<path d="M83.3177 9.68049C83.1676 11.2413 82.3173 12.3205 80.7065 12.3975C78.9057 12.4843 77.7752 11.4341 77.7952 9.69978C77.8152 8.13893 78.8857 7.15614 80.5064 7.14651C82.1572 7.12724 83.0376 8.15818 83.3177 9.68049Z" fill="#12D930" fill-opacity="0.2"/>
<path d="M36.3569 9.78607C36.1168 11.3084 35.2664 12.3682 33.6557 12.3779C31.8849 12.3875 30.7744 11.2987 30.8844 9.59336C30.9745 8.08068 32.065 7.09793 33.6857 7.16538C35.2964 7.22318 36.1368 8.26376 36.3569 9.78607Z" fill="#12D930" fill-opacity="0.2"/>
<path d="M25.7524 89.8135C27.5432 89.9387 28.6537 90.8059 28.6737 92.5691C28.7037 94.4961 27.5832 95.5366 25.5923 95.4692C23.7715 95.4017 22.801 94.3323 22.841 92.5883C22.8811 90.8251 23.9616 89.9484 25.7524 89.8135Z" fill="#12D930" fill-opacity="0.2"/>
<path d="M103.977 80.3141C102.256 80.0733 101.136 79.1772 101.226 77.4237C101.306 75.8724 102.356 74.8897 103.987 74.909C105.788 74.9379 106.848 75.9977 106.768 77.732C106.698 79.3121 105.618 80.1311 103.977 80.3141Z" fill="#12D930" fill-opacity="0.2"/>
<path d="M9.90549 74.9084C11.6363 75.0915 12.7468 75.9008 12.8168 77.4424C12.8868 79.1478 11.7863 80.2365 10.0155 80.198C8.42481 80.1691 7.41437 79.1286 7.40436 77.5773C7.39436 75.9972 8.52487 75.236 9.90549 74.9084Z" fill="#12D930" fill-opacity="0.2"/>
<path d="M18.0488 27.6973C16.0879 27.4949 15.0174 26.5989 15.0374 24.855C15.0574 22.9376 16.238 21.9452 18.1888 22.0608C19.9796 22.1765 20.91 23.2748 20.84 24.9995C20.76 26.7723 19.5794 27.5335 18.0488 27.6973Z" fill="#12D930" fill-opacity="0.2"/>
<path d="M103.827 35.0873C102.156 34.7501 101.066 33.8059 101.266 32.0812C101.436 30.5782 102.526 29.605 104.137 29.7303C105.898 29.8556 106.928 30.9636 106.738 32.6786C106.578 34.1913 105.468 34.991 103.827 35.0873Z" fill="#12D930" fill-opacity="0.2"/>
<path d="M36.3758 100.297C36.0857 101.819 35.2053 102.84 33.5646 102.821C31.9438 102.802 30.8734 101.81 30.8633 100.249C30.8533 98.5144 31.9838 97.4642 33.7847 97.5606C35.3854 97.6569 36.2358 98.7456 36.3758 100.297Z" fill="#12D930" fill-opacity="0.2"/>
<path d="M80.3462 97.4536C82.2271 97.7138 83.3576 98.5906 83.2776 100.325C83.2076 101.857 82.1671 102.849 80.5664 102.84C78.7956 102.83 77.7251 101.77 77.7751 100.055C77.8151 98.4942 78.9756 97.7523 80.3462 97.4536Z" fill="#12D930" fill-opacity="0.2"/>
<path d="M12.8568 32.4573C12.5567 33.9989 11.6562 35.0298 10.0155 34.9623C8.40475 34.8949 7.36431 33.864 7.42434 32.2935C7.48437 30.7422 8.56482 29.7402 10.1956 29.798C11.8363 29.8558 12.6767 30.9157 12.8568 32.4573Z" fill="#12D930" fill-opacity="0.2"/>
<path d="M114.293 54.9253C114.133 56.4573 113.312 57.334 111.802 57.3244C110.291 57.3051 109.39 56.4187 109.4 54.9638C109.42 53.509 110.341 52.6418 111.852 52.6514C113.372 52.6611 114.143 53.5861 114.293 54.9253Z" fill="#12D930" fill-opacity="0.2"/>
<path d="M74.8534 107.465C74.8034 108.843 74.1731 109.643 72.9626 109.749C71.582 109.874 70.6615 109.171 70.6115 107.802C70.5615 106.444 71.4019 105.683 72.8125 105.702C74.0731 105.721 74.6333 106.54 74.8534 107.465Z" fill="#12D930" fill-opacity="0.2"/>
<path d="M54.6543 107.773C54.8744 106.145 55.7648 105.354 57.2655 105.47C58.7962 105.595 59.5566 106.588 59.3965 108.023C59.2564 109.295 58.366 110.037 57.0154 110.008C55.4647 109.96 54.7844 109.016 54.6543 107.773Z" fill="#12D930" fill-opacity="0.2"/>
<path d="M43.53 107.715C43.38 108.996 42.6696 109.796 41.279 109.738C40.0785 109.68 39.3281 108.939 39.3281 107.773C39.3281 106.443 40.1585 105.672 41.5391 105.73C42.7497 105.769 43.38 106.539 43.53 107.715Z" fill="#12D930" fill-opacity="0.2"/>
<path d="M43.5091 2.25115C43.3491 3.40734 42.6987 4.19741 41.4782 4.20704C40.0776 4.21668 39.2572 3.37844 39.3673 2.03918C39.4573 0.89263 40.2876 0.179631 41.5182 0.247075C42.7387 0.324155 43.3691 1.09496 43.5091 2.25115Z" fill="#12D930" fill-opacity="0.2"/>
<path d="M59.4078 2.24195C59.2077 3.87025 58.2673 4.60252 56.7566 4.458C55.386 4.32311 54.6557 3.43667 54.7457 2.11669C54.8458 0.584738 55.8462 -0.118604 57.3669 0.0162848C58.7475 0.141539 59.3678 1.05685 59.4078 2.24195Z" fill="#12D930" fill-opacity="0.2"/>
<path d="M74.853 2.16484C74.6029 3.61007 73.8226 4.38086 72.452 4.23634C71.2815 4.11108 70.5411 3.3403 70.6211 2.16484C70.7112 0.835218 71.5916 0.112599 72.9522 0.237853C74.1628 0.343837 74.703 1.20134 74.853 2.16484Z" fill="#12D930" fill-opacity="0.2"/>
<path d="M4.39286 39.9149C4.2428 41.0711 3.6025 41.8708 2.38194 41.89C0.981312 41.9189 0.150982 41.0903 0.241023 39.7511C0.321059 38.6045 1.13143 37.8819 2.37199 37.9398C3.60255 37.9879 4.23279 38.7587 4.39286 39.9149Z" fill="#12D930" fill-opacity="0.2"/>
<path d="M113.991 39.7019C113.891 41.1857 113.201 41.9661 111.79 41.9661C110.569 41.9661 109.799 41.3013 109.699 40.1451C109.589 38.8348 110.269 37.9676 111.67 37.8713C113.101 37.7653 113.781 38.5843 113.991 39.7019Z" fill="#12D930" fill-opacity="0.2"/>
<path d="M4.6022 54.9934C4.50216 56.4097 3.7118 57.2383 2.1611 57.1805C0.790476 57.1323 0.0100889 56.3423 8.43454e-05 55.0319C-0.00992018 53.5385 0.870512 52.7388 2.41121 52.787C3.79183 52.8255 4.49215 53.6349 4.6022 54.9934Z" fill="#12D930" fill-opacity="0.2"/>
<path d="M4.39182 70.1004C4.20174 71.2566 3.55145 72.037 2.33089 72.0274C0.930261 72.0178 0.119877 71.1699 0.249936 69.8306C0.36999 68.6937 1.20037 67.9807 2.44093 68.0674C3.64147 68.1638 4.28177 68.9346 4.39182 70.1004Z" fill="#12D930" fill-opacity="0.2"/>
<path d="M113.981 70.0044C113.891 71.3148 113.2 72.0952 111.8 72.1049C110.579 72.1049 109.809 71.4401 109.709 70.2839C109.599 68.9735 110.279 68.0967 111.68 68.01C113.07 67.9233 113.821 68.6652 113.981 70.0044Z" fill="#12D930" fill-opacity="0.2"/>
</svg>
