<svg width="85" height="16" viewBox="0 0 85 16" fill="none" xmlns="http://www.w3.org/2000/svg">
<g clip-path="url(#clip0_0_1)">
<path d="M-0.00390625 0.00341797H15.7615V15.8706H-0.00390625V0.00341797ZM17.0753 0.00341797H32.8407V15.8706H17.0753V0.00341797ZM34.1544 0.00341797H49.9198V15.8706H34.1544V0.00341797ZM51.2336 0.00341797H66.999V15.8706H51.2336V0.00341797ZM68.3128 0.00341797H84.0782V15.8706H68.3128V0.00341797Z" fill="#00B67A"/>
<path d="M7.87726 10.6976L10.2749 10.0861L11.2767 13.1934L7.87726 10.6976ZM13.3952 6.68125H9.17462L7.87726 2.6814L6.5799 6.68125H2.35938L5.77521 9.16049L4.47785 13.1603L7.89368 10.6811L9.99574 9.16049L13.3952 6.68125ZM24.9564 10.6976L27.3541 10.0861L28.3559 13.1934L24.9564 10.6976ZM30.4743 6.68125H26.2538L24.9564 2.6814L23.6591 6.68125H19.4386L22.8544 9.16049L21.557 13.1603L24.9729 10.6811L27.0749 9.16049L30.4743 6.68125ZM42.0356 10.6976L44.4333 10.0861L45.435 13.1934L42.0356 10.6976ZM47.5535 6.68125H43.333L42.0356 2.6814L40.7383 6.68125H36.5177L39.9336 9.16049L38.6362 13.1603L42.052 10.6811L44.1541 9.16049L47.5535 6.68125ZM59.1148 10.6976L61.5125 10.0861L62.5142 13.1934L59.1148 10.6976ZM64.6327 6.68125H60.4122L59.1148 2.6814L57.8174 6.68125H53.5969L57.0127 9.16049L55.7154 13.1603L59.1312 10.6811L61.2333 9.16049L64.6327 6.68125ZM76.194 10.6976L78.5916 10.0861L79.5934 13.1934L76.194 10.6976ZM81.7119 6.68125H77.4913L76.194 2.6814L74.8966 6.68125H70.6761L74.0919 9.16049L72.7946 13.1603L76.2104 10.6811L78.3125 9.16049L81.7119 6.68125Z" fill="white"/>
</g>
<g clip-path="url(#clip1_0_1)">
<rect x="81.7285" y="-6.10352e-05" width="2.93993" height="15.8756" fill="#D9D9D9"/>
</g>
<defs>
<clipPath id="clip0_0_1">
<rect width="84.0821" height="15.8756" fill="white"/>
</clipPath>
<clipPath id="clip1_0_1">
<rect width="84.0821" height="15.8756" fill="white"/>
</clipPath>
</defs>
</svg>
